<svg preserveAspectRatio="none" width="100%" height="100%" overflow="visible" style="display: block;" viewBox="0 0 36 36" fill="none" xmlns="http://www.w3.org/2000/svg">
<g id="image 934 [Vectorized]">
<g clip-path="url(#clip0_962_3336)">
<path id="Vector" d="M0 0H36V36H0V0Z" fill="white"/>
<path id="Vector_2" d="M17.5367 12.2724C18.1696 12.1835 19.3197 12.3326 19.8021 12.805C20.0261 13.0244 20.0703 13.2528 20.0659 13.55C20.3215 13.684 20.5379 13.8521 20.7435 14.054C22.3751 15.6565 23.9843 20.6809 24.0008 22.9546C24.209 23.0334 24.3327 23.0994 24.4973 23.2624C24.6424 23.4054 24.75 23.582 24.8104 23.7765C24.9409 24.1953 24.896 25.3578 24.8935 25.8653C25.8883 26.031 25.652 27.1804 25.6408 27.9496C26.2569 27.9353 26.806 28.0088 26.7923 28.8004C26.7493 29.7432 27.0315 30.399 25.8241 30.4271C23.7363 30.4753 21.5954 30.3598 19.5188 30.4374C19.5122 29.9047 19.5266 29.3644 19.5224 28.8309C19.52 28.5272 19.5383 28.1927 19.4941 27.8949C19.4651 27.6911 19.4006 27.4939 19.3035 27.3124C19.0648 26.8755 18.7328 26.6586 18.2713 26.521C17.7456 26.3905 17.1638 26.5588 16.7806 26.941C16.5803 27.1416 16.4362 27.3914 16.3629 27.6652C16.2324 28.1441 16.2818 29.8358 16.2825 30.4297L11.7772 30.4271L10.4791 30.4308C10.1039 30.4319 9.5091 30.4894 9.21714 30.2286C9.05613 30.0847 8.99326 29.692 9.00312 29.4785C9.02178 29.0743 8.91749 28.4935 9.21663 28.1703C9.46118 27.9156 9.84405 27.9448 10.164 27.9442C10.157 27.1689 9.91821 26.033 10.9205 25.8627C10.9174 25.6178 10.9126 25.3706 10.9101 25.126C10.901 24.2385 10.8032 23.3363 11.8051 22.9496C11.7785 22.3115 12.074 20.7589 12.2547 20.1365C12.8093 18.2253 13.9614 14.5566 15.7409 13.5371C15.7554 12.5058 16.7285 12.3774 17.5367 12.2724Z" fill="#FE7B00"/>
<path id="Vector_3" d="M15.9365 18.5786C17.4667 18.4308 18.4024 19.9113 17.501 21.178C17.3726 21.3585 17.2413 21.4868 17.0778 21.6342C17.2805 21.7014 17.485 21.7636 17.6908 21.8206C18.1113 21.6976 18.4211 21.3755 18.5633 20.9547C19.0333 19.5639 20.4284 18.828 21.6157 20.0368C22.6871 21.1276 22.6678 23.4572 21.5301 24.5273C21.2424 24.7979 20.7672 25.0094 20.3576 24.9785C19.1205 24.8384 18.8348 23.7834 18.9196 22.7275C19.1284 22.9549 19.3734 23.3048 19.6611 23.4192C19.9902 23.5365 20.4396 23.5417 20.7623 23.4023C21.6662 23.0118 21.9105 21.8729 21.5675 21.0234C21.4973 20.8476 21.2599 20.5583 21.0624 20.5199C19.8377 20.2818 19.9459 21.7794 18.8909 22.2737C18.6251 22.3696 18.3378 22.3377 18.0598 22.319C18.5562 23.1072 18.6494 23.9502 18.1594 24.773C17.8888 25.2214 17.4503 25.5433 16.9414 25.667C16.2568 25.832 15.5347 25.7208 14.9314 25.3575C14.0752 24.8432 13.5132 23.8428 13.3876 22.8653C13.3557 22.6163 13.3153 21.9921 13.4445 21.777C13.5164 21.7801 13.5597 22.0093 13.5802 22.0902C13.7617 22.8292 14.0557 23.5113 14.68 23.9801C15.3694 24.4979 16.7987 24.6342 17.3423 23.8537C17.4949 23.6356 17.5545 23.3658 17.5081 23.1038C17.3621 22.299 16.5266 22.2782 15.8907 22.3983C15.7016 22.0203 15.5592 21.5703 15.458 21.1611C15.9807 21.1543 16.8871 21.2495 17.104 20.5854C17.1477 20.4543 17.1341 20.311 17.0667 20.1903C16.9875 20.046 16.8101 19.919 16.6529 19.889C15.9162 19.7482 15.4445 20.0692 14.872 20.4095C14.6296 20.0754 14.4257 19.7586 14.2084 19.4095C14.6815 18.938 15.2843 18.6829 15.9365 18.5786Z" fill="white"/>
<path id="Vector_4" d="M16.5689 17.1367C16.6376 17.1797 16.8773 17.4055 16.9487 17.4733C17.342 17.8466 17.8137 18.0611 18.3659 18.0511C19.0802 18.0383 19.6016 17.7131 20.0878 17.2158C20.3712 17.4588 20.6408 17.7174 20.8955 17.9905L20.7534 18.1973C20.6013 18.3668 20.431 18.519 20.2455 18.6512C19.7044 19.0262 19.0366 19.1713 18.3887 19.0544C17.6823 18.9274 17.1055 18.4276 16.7726 17.8047C16.6734 17.6192 16.5306 17.3494 16.5689 17.1367Z" fill="white"/>
<path id="Vector_5" d="M18.1539 16.3112C18.3889 16.2617 18.6323 16.3422 18.7914 16.522C18.9506 16.7019 19.0008 16.9533 18.923 17.1805C18.8453 17.4077 18.6515 17.5756 18.4156 17.6202C18.056 17.6881 17.7088 17.454 17.6371 17.0952C17.5654 16.7364 17.7959 16.3867 18.1539 16.3112Z" fill="white"/>
<path id="Vector_6" d="M17.8392 5C18.4118 5.06304 18.0721 5.48951 18.0351 5.87552C19.1612 5.56198 20.0033 5.81423 20.9118 6.49437C21.3179 6.79841 21.6498 7.00928 22.1533 7.08868C22.8951 7.20564 23.3134 6.96207 23.9986 6.78259C24.1736 6.73677 24.41 6.72386 24.5942 6.71286C23.7689 7.11267 23.8073 7.38679 23.142 7.89855C22.627 8.29475 21.8779 8.44924 21.232 8.35195C21.0406 8.33387 20.6125 8.24135 20.3971 8.20408C19.445 8.03944 18.9104 8.14119 18.0585 8.54452C18.0541 8.8289 18.0014 9.42932 18.1529 9.63543C18.958 10.7306 18.6669 10.9568 17.4296 10.8326C17.3154 10.8211 17.1262 10.6723 17.1971 10.4561C17.3304 10.0498 17.5187 9.86893 17.7378 9.50832C17.7559 9.0532 17.7416 8.49043 17.7416 8.02542L17.7434 5.71791C17.7416 5.44576 17.4191 5.21595 17.8392 5Z" fill="#FE7B00"/>
<path id="Vector_7" d="M17.2245 11.1056C17.745 11.0666 18.6128 11.0122 19.0511 11.3027C19.3061 11.4717 19.3364 11.9193 19.1539 12.1418C19.0461 12.192 18.7237 12.1001 18.5912 12.0714C18.2379 12.0124 17.538 12.0227 17.1862 12.0745C17.0487 12.0947 16.7617 12.2011 16.6495 12.1388C16.4552 11.8835 16.5373 11.4308 16.8097 11.2653C16.9589 11.1745 17.0596 11.1446 17.2245 11.1056Z" fill="#FE7B00"/>
</g>
<rect x="0.25" y="0.25" width="35.5" height="35.5" rx="17.75" stroke="#FE8A02" stroke-width="0.5"/>
</g>
<defs>
<clipPath id="clip0_962_3336">
<rect width="36" height="36" rx="18" fill="white"/>
</clipPath>
</defs>
</svg>
